<svg width="300" height="200" viewBox="0 0 300 200" fill="none" xmlns="http://www.w3.org/2000/svg">
<rect x="2.5" y="2.5" width="295" height="195" rx="17.5" fill="#1A1726" stroke="#E00565" stroke-width="5" stroke-dasharray="10 10"/>
<circle cx="97.7692" cy="120.231" r="5.76923" fill="#FAFAFA"/>
<circle cx="98.9231" cy="116.769" r="5.76923" fill="#1A1726"/>
<path d="M64.4304 116H55.0224L42.4944 97.088V116H33.0864V82.16H42.4944L55.0224 101.312V82.16H64.4304V116ZM82.3176 116.336C79.6296 116.336 77.2136 115.776 75.0696 114.656C72.9576 113.536 71.2936 111.936 70.0776 109.856C68.8616 107.776 68.2536 105.328 68.2536 102.512C68.2536 99.728 68.8616 97.296 70.0776 95.216C71.3256 93.136 73.0056 91.536 75.1176 90.416C77.2616 89.296 79.6776 88.736 82.3656 88.736C85.0536 88.736 87.4536 89.296 89.5656 90.416C91.7096 91.536 93.3896 93.136 94.6056 95.216C95.8536 97.296 96.4776 99.728 96.4776 102.512C96.4776 105.296 95.8536 107.744 94.6056 109.856C93.3896 111.936 91.7096 113.536 89.5656 114.656C87.4216 115.776 85.0056 116.336 82.3176 116.336ZM82.3176 108.176C83.6296 108.176 84.7176 107.696 85.5816 106.736C86.4776 105.744 86.9256 104.336 86.9256 102.512C86.9256 100.688 86.4776 99.296 85.5816 98.336C84.7176 97.376 83.6456 96.896 82.3656 96.896C81.0856 96.896 80.0136 97.376 79.1496 98.336C78.2856 99.296 77.8536 100.688 77.8536 102.512C77.8536 104.368 78.2696 105.776 79.1016 106.736C79.9336 107.696 81.0056 108.176 82.3176 108.176ZM112.833 116.336C110.145 116.336 107.729 115.776 105.585 114.656C103.473 113.536 101.809 111.936 100.593 109.856C99.3772 107.776 98.7692 105.328 98.7692 102.512C98.7692 99.728 99.3772 97.296 100.593 95.216C101.841 93.136 103.521 91.536 105.633 90.416C107.777 89.296 110.193 88.736 112.881 88.736C115.569 88.736 117.969 89.296 120.081 90.416C122.225 91.536 123.905 93.136 125.121 95.216C126.369 97.296 126.993 99.728 126.993 102.512C126.993 105.296 126.369 107.744 125.121 109.856C123.905 111.936 122.225 113.536 120.081 114.656C117.937 115.776 115.521 116.336 112.833 116.336ZM112.833 108.176C114.145 108.176 115.233 107.696 116.097 106.736C116.993 105.744 117.441 104.336 117.441 102.512C117.441 100.688 116.993 99.296 116.097 98.336C115.233 97.376 114.161 96.896 112.881 96.896C111.601 96.896 110.529 97.376 109.665 98.336C108.801 99.296 108.369 100.688 108.369 102.512C108.369 104.368 108.785 105.776 109.617 106.736C110.449 107.696 111.521 108.176 112.833 108.176ZM140.229 80.48V116H130.821V80.48H140.229ZM174.578 89.072L157.49 128.816H147.266L153.698 114.848L142.658 89.072H153.122L158.786 104.336L164.258 89.072H174.578ZM226.661 88.832C230.053 88.832 232.709 89.856 234.629 91.904C236.581 93.952 237.557 96.752 237.557 100.304V116H228.149V101.552C228.149 100.112 227.749 98.992 226.949 98.192C226.149 97.392 225.061 96.992 223.685 96.992C222.309 96.992 221.221 97.392 220.421 98.192C219.621 98.992 219.221 100.112 219.221 101.552V116H209.813V101.552C209.813 100.112 209.413 98.992 208.613 98.192C207.845 97.392 206.773 96.992 205.397 96.992C203.989 96.992 202.885 97.392 202.085 98.192C201.285 98.992 200.885 100.112 200.885 101.552V116H191.477V89.072H200.885V92.624C201.717 91.472 202.789 90.56 204.101 89.888C205.445 89.184 206.981 88.832 208.709 88.832C210.693 88.832 212.453 89.264 213.989 90.128C215.557 90.992 216.789 92.208 217.685 93.776C218.645 92.304 219.909 91.12 221.477 90.224C223.045 89.296 224.773 88.832 226.661 88.832ZM268.439 102.224C268.439 102.96 268.391 103.696 268.295 104.432H250.487C250.583 105.904 250.983 107.008 251.687 107.744C252.423 108.448 253.351 108.8 254.471 108.8C256.039 108.8 257.159 108.096 257.831 106.688H267.863C267.447 108.544 266.631 110.208 265.415 111.68C264.231 113.12 262.727 114.256 260.903 115.088C259.079 115.92 257.063 116.336 254.855 116.336C252.199 116.336 249.831 115.776 247.751 114.656C245.703 113.536 244.087 111.936 242.903 109.856C241.751 107.776 241.175 105.328 241.175 102.512C241.175 99.696 241.751 97.264 242.903 95.216C244.055 93.136 245.655 91.536 247.703 90.416C249.783 89.296 252.167 88.736 254.855 88.736C257.511 88.736 259.863 89.28 261.911 90.368C263.959 91.456 265.559 93.024 266.711 95.072C267.863 97.088 268.439 99.472 268.439 102.224ZM258.839 99.872C258.839 98.72 258.455 97.824 257.687 97.184C256.919 96.512 255.959 96.176 254.807 96.176C253.655 96.176 252.711 96.496 251.975 97.136C251.239 97.744 250.759 98.656 250.535 99.872H258.839Z" fill="#FAFAFA"/>
<path d="M181.6 116.384C179.936 116.384 178.592 115.936 177.568 115.04C176.576 114.112 176.08 112.944 176.08 111.536C176.08 110.128 176.576 108.96 177.568 108.032C178.592 107.104 179.936 106.64 181.6 106.64C183.232 106.64 184.544 107.104 185.536 108.032C186.56 108.96 187.072 110.128 187.072 111.536C187.072 112.912 186.56 114.064 185.536 114.992C184.544 115.92 183.232 116.384 181.6 116.384Z" fill="#F90670"/>
</svg>
